<svg xmlns="http://www.w3.org/2000/svg" width="32" height="32" viewBox="0 0 32 32" fill="none">
  <rect width="32" height="32" rx="8" fill="transparent"/>
  <path d="M16 5C16 5 12.5 10 12.5 14.5C12.5 16.5 13.5 18.5 14.5 19.5C13.5 18 13.5 16 14.5 14C15.5 12 16 10 16 10C16 10 18.5 13 19.5 16C20.5 19 19 22 16 24C13 22 11 19 12 16C12.5 14 13.5 12 16 5Z" fill="white"/>
  <path d="M16 12C16 12 18 14.5 18.5 17C19 19.5 17.5 21.5 16 22.5C14.5 21.5 13 19.5 13.5 17C14 14.5 16 12 16 12Z" fill="#F59E0B"/>
  <path d="M16 16C16 16 17 17.5 17 19C17 20.5 16.5 21.5 16 22C15.5 21.5 15 20.5 15 19C15 17.5 16 16 16 16Z" fill="#FCD34D"/>
</svg>
